<?xml version="1.0" encoding="iso-8859-1"?>
<!-- Generator: Adobe Illustrator 19.0.0, SVG Export Plug-In . SVG Version: 6.00 Build 0)  -->
<svg version="1.1" id="Layer_1" xmlns="http://www.w3.org/2000/svg" xmlns:xlink="http://www.w3.org/1999/xlink" x="0px" y="0px"
	 viewBox="0 0 512 512" style="enable-background:new 0 0 512 512;" xml:space="preserve">
<g>
	<g>
		<path fill="transparent" d="M256,0C120.593,0,72.348,51.744,72.348,100.174c0,77.148,104.369,100.174,183.652,100.174
			c79.741,0,183.652-23.154,183.652-100.174C439.652,51.744,391.407,0,256,0z"/>
	</g>
</g>
<g>
	<g>
		<path fill="transparent" d="M354.017,343.876c-59.288,30.023-131.887,32.306-195.969-0.022c-0.443,2.492-18.917,105.512-18.917,108.043
			C139.13,491.353,197.924,512,256,512s116.87-20.647,116.87-60.103C372.87,449.663,354.406,346.076,354.017,343.876z M256,478.609
			c-52.321,0-81.397-17.652-83.369-25.858l3.978-22.511c23.391,10.621,53.475,14.978,79.391,14.978
			c25.708,0,55.928-4.325,79.391-14.978l3.978,22.511C337.397,460.957,308.321,478.609,256,478.609z"/>
	</g>
</g>
<g>
	<g>
		<path fill="transparent" d="M394.464,208.281c-13.731,32.999-38.823,60.831-73.774,77.659c0.046-0.088,0.08-0.19,0.126-0.278
			c9.065-17.753,14.888-39.9,17.168-59.357c-25.675,5.199-56.419,7.435-81.983,7.435c-25.742,0-56.294-2.243-81.987-7.472
			c2.315,19.794,8.245,42.027,17.259,59.602c-33.124-15.667-59.473-43.208-73.789-77.694c-16.72-7.792-31.032-17.199-42.659-28.041
			c9.426,58.388,46.136,108.638,100.595,135.159c50.547,24.747,110.919,24.654,161.261,0.006
			c54.378-26.587,91.03-76.793,100.477-135.073C425.516,191.084,411.193,200.495,394.464,208.281z"/>
	</g>
</g>
<g>
</g>
<g>
</g>
<g>
</g>
<g>
</g>
<g>
</g>
<g>
</g>
<g>
</g>
<g>
</g>
<g>
</g>
<g>
</g>
<g>
</g>
<g>
</g>
<g>
</g>
<g>
</g>
<g>
</g>
</svg>
