<?xml version="1.0" encoding="iso-8859-1"?>
<!-- Generator: Adobe Illustrator 19.0.0, SVG Export Plug-In . SVG Version: 6.00 Build 0)  -->
<svg version="1.1" id="Capa_1" xmlns="http://www.w3.org/2000/svg" xmlns:xlink="http://www.w3.org/1999/xlink" x="0px" y="0px"
	 viewBox="0 0 512 512" style="enable-background:new 0 0 512 512;" xml:space="preserve">
<g>
	<g>
		<path fill="transparent" d="M512,63.691L448.309,0l-31.827,31.827L394.645,9.989l-21.213,21.213L395.27,53.04l-21.247,21.247L352.185,52.45
			l-21.213,21.213L352.809,95.5L252.102,196.208c26.059,15.717,47.974,37.632,63.691,63.691L416.5,159.191l21.837,21.837
			l21.213-21.213l-21.837-21.838l21.247-21.247l21.837,21.837l21.213-21.213l-21.837-21.837L512,63.691z"/>
	</g>
</g>
<g>
	<g>
		<path fill="transparent" d="M156.217,199.566C70.079,199.566,0,269.645,0,355.783S70.079,512,156.217,512s156.217-70.079,156.217-156.217
			S242.355,199.566,156.217,199.566z M141.078,441.922l-71-71l21.213-21.213l71,71L141.078,441.922z"/>
	</g>
</g>
<g>
</g>
<g>
</g>
<g>
</g>
<g>
</g>
<g>
</g>
<g>
</g>
<g>
</g>
<g>
</g>
<g>
</g>
<g>
</g>
<g>
</g>
<g>
</g>
<g>
</g>
<g>
</g>
<g>
</g>
</svg>
