<?xml version="1.0" encoding="iso-8859-1"?>
<!-- Generator: Adobe Illustrator 19.0.0, SVG Export Plug-In . SVG Version: 6.00 Build 0)  -->
<svg version="1.1" id="Layer_1" xmlns="http://www.w3.org/2000/svg" xmlns:xlink="http://www.w3.org/1999/xlink" x="0px" y="0px"
	 viewBox="0 -60 512 512" style="enable-background:new 0 0 512 512;" xml:space="preserve">
<g>
	<g>
		<path fill="transparent" d="M482.075,150.56V61.816H29.925v88.744H0v299.623h512V150.56H482.075z M131.919,390.659
			c-37.451,0-67.811-30.361-67.811-67.811s30.359-67.811,67.811-67.811c37.452,0,67.811,30.359,67.811,67.811
			C199.73,360.299,169.37,390.659,131.919,390.659z M380.081,390.659c-37.451,0-67.811-30.361-67.811-67.811
			s30.359-67.811,67.811-67.811c37.452,0,67.811,30.359,67.811,67.811C447.892,360.299,417.532,390.659,380.081,390.659z
			 M199.73,233.87v-33.391h112.54v33.391H199.73z M448.683,150.56H328.964v-18.398h-33.391v18.398h-22.878v-18.398h-33.391v18.398
			h-22.879v-18.398h-33.391v18.398H63.317V95.208h385.367V150.56z"/>
	</g>
</g>
<g>
</g>
<g>
</g>
<g>
</g>
<g>
</g>
<g>
</g>
<g>
</g>
<g>
</g>
<g>
</g>
<g>
</g>
<g>
</g>
<g>
</g>
<g>
</g>
<g>
</g>
<g>
</g>
<g>
</g>
</svg>
