<?xml version="1.0" encoding="iso-8859-1"?>
<!-- Generator: Adobe Illustrator 19.0.0, SVG Export Plug-In . SVG Version: 6.00 Build 0)  -->
<svg version="1.1" id="Layer_1" xmlns="http://www.w3.org/2000/svg" xmlns:xlink="http://www.w3.org/1999/xlink" x="0px" y="0px"
	 viewBox="0 0 512 512" style="enable-background:new 0 0 512 512;" xml:space="preserve">
<g>
	<g>
		<path fill="transparent" d="M508.169,90.783l-87.09-87.09c-5.003-5.003-14.03-4.883-19.033,0.119l-34.869,34.869l60.162,60.162
			c4.411,4.411,5.096,11.776,0.685,16.187L115.03,428.025c-4.411,4.411-11.776,3.727-16.187-0.685L38.68,367.178L3.812,402.047
			c-5.002,5.002-5.122,14.03-0.119,19.032l87.09,87.09c5.002,5.002,14.306,5.16,19.308,0.157l398.234-398.233
			C513.328,105.089,513.171,95.785,508.169,90.783z"/>
	</g>
</g>
<g>
	<g>
		<path fill="transparent" d="M387.469,91.821l-4.082,4.082c-4.411,4.411-11.788,4.184-16.198-0.227c-4.411-4.411-4.637-11.788-0.227-16.198
			l4.082-4.082l-29.951-29.951L45.444,341.092l29.951,29.951l4.082-4.082c4.411-4.411,11.788-4.184,16.198,0.227
			c4.411,4.411,4.637,11.788,0.227,16.198l-4.082,4.082l15.458,15.458l295.65-295.647L387.469,91.821z"/>
	</g>
</g>
<g>
</g>
<g>
</g>
<g>
</g>
<g>
</g>
<g>
</g>
<g>
</g>
<g>
</g>
<g>
</g>
<g>
</g>
<g>
</g>
<g>
</g>
<g>
</g>
<g>
</g>
<g>
</g>
<g>
</g>
</svg>
