<?xml version="1.0" encoding="iso-8859-1"?>
<!-- Generator: Adobe Illustrator 19.0.0, SVG Export Plug-In . SVG Version: 6.00 Build 0)  -->
<svg version="1.1" id="Layer_1" xmlns="http://www.w3.org/2000/svg" xmlns:xlink="http://www.w3.org/1999/xlink" x="0px" y="0px"
	 viewBox="0 0 512.002 512.002" style="enable-background:new 0 0 512.002 512.002;" xml:space="preserve">
<g>
	<g>
		<path fill="transparent" d="M508.842,25.759L486.244,3.161c-4.214-4.214-11.047-4.214-15.261,0l-21.637,21.637
			c-6.994-6.726-18.111-6.656-25.004,0.237l-2.27,2.27L400.876,6.109c-6.644-6.644-17.418-6.644-24.062,0
			c-6.645,6.644-6.645,17.418,0,24.062l21.196,21.196l-19.82,19.82L356.995,49.99c-6.643-6.646-17.417-6.644-24.062,0
			c-6.645,6.644-6.645,17.417,0,24.062l21.196,21.197l-12.076,12.076l-21.197-21.197c-6.644-6.644-17.418-6.644-24.062,0
			c-6.645,6.644-6.645,17.418,0,24.062l21.197,21.197l-30.146,30.146l-21.197-21.197c-6.644-6.644-17.418-6.644-24.062,0
			c-6.645,6.644-6.645,17.418,0,24.062l21.197,21.197l-14.657,14.657l-21.197-21.197c-6.644-6.644-17.418-6.644-24.062,0
			c-6.645,6.644-6.645,17.418,0,24.062l21.062,21.062c-30.758,27.859-72.066,41.597-113.568,37.439
			c-31.639-3.169-61.936,5.642-83.515,27.221C-12.4,329.085-8.23,399.653,35.243,452.697l-22.107,22.107
			c-6.645,6.644-6.645,17.418,0,24.062c6.645,6.645,17.417,6.645,24.062,0l22.107-22.107
			c53.045,43.472,123.613,47.642,163.858,7.397c21.579-21.579,30.391-51.877,27.221-83.515
			c-4.405-43.973,11.196-87.592,42.445-118.842L486.968,87.661c6.893-6.893,6.963-18.008,0.237-25.004l21.637-21.637
			C513.056,36.806,513.056,29.973,508.842,25.759z M142.08,450.589c-6.645,6.645-17.417,6.645-24.062,0l-56.603-56.603
			c-6.645-6.644-6.645-17.418,0-24.062c6.644-6.644,17.418-6.644,24.062,0l56.603,56.603
			C148.724,433.171,148.724,443.945,142.08,450.589z M201.155,391.512c-6.645,6.645-17.417,6.644-24.062,0l-56.603-56.603
			c-6.645-6.644-6.645-17.418,0-24.062c6.644-6.644,17.418-6.644,24.062,0l56.603,56.603
			C207.801,374.095,207.801,384.868,201.155,391.512z"/>
	</g>
</g>
<g>
</g>
<g>
</g>
<g>
</g>
<g>
</g>
<g>
</g>
<g>
</g>
<g>
</g>
<g>
</g>
<g>
</g>
<g>
</g>
<g>
</g>
<g>
</g>
<g>
</g>
<g>
</g>
<g>
</g>
</svg>
